<?xml version="1.0" encoding="utf-8"?>
<!-- Generator: Adobe Illustrator 15.1.0, SVG Export Plug-In . SVG Version: 6.00 Build 0)  -->
<!DOCTYPE svg PUBLIC "-//W3C//DTD SVG 1.1//EN" "http://www.w3.org/Graphics/SVG/1.1/DTD/svg11.dtd">
<svg version="1.1" id="Слой_1" xmlns="http://www.w3.org/2000/svg" xmlns:xlink="http://www.w3.org/1999/xlink" x="0px" y="0px"
	 width="76.41px" height="76.41px" viewBox="0 0 76.41 76.41" enable-background="new 0 0 76.41 76.41" xml:space="preserve">
<g id="Layer_1_1_">
</g>
<g id="Layer_1_2_">
</g>
<g id="Слой_1_1_">
	<g>
		<g>
			<path fill="#444342" d="M43.159,18.569c1.354-0.676,2.78-1.052,4.359-0.977c4.51,0.226,9.093,0.451,13.603,0.751
				c1.878,0.075,3.606,1.579,3.981,3.532c0.978,4.509,2.03,9.018,2.932,13.527c0.45,2.104-0.075,4.133-1.503,5.862
				c-9.093,10.67-18.187,21.417-27.279,32.088c-1.503,1.729-3.532,1.954-5.336,0.451c-2.179-1.804-4.359-3.683-6.538-5.485
				c-4.208-3.532-8.342-7.064-12.55-10.597c-0.751-0.676-1.353-1.353-1.578-2.329c-0.225-1.128,0.075-2.18,0.827-3.082
				c3.983-4.734,8.042-9.394,12.024-14.128c5.186-6.087,10.371-12.174,15.556-18.261C42.107,19.396,42.709,19.02,43.159,18.569z
				 M41.28,30.744c-0.074,0.075-0.376,0.301-0.525,0.526c-5.712,6.688-11.423,13.452-17.134,20.215
				c-1.052,1.277-0.977,2.556,0.3,3.607c3.457,2.931,6.914,5.861,10.296,8.792c1.428,1.202,2.63,1.128,3.907-0.301
				c3.908-4.584,7.815-9.243,11.725-13.827c1.804-2.104,3.531-4.209,5.335-6.313c0.901-1.051,0.826-2.404-0.226-3.306
				c-0.3-0.301-0.601-0.526-0.977-0.827c-3.307-2.78-6.538-5.561-9.845-8.341C43.31,30.218,42.333,30.067,41.28,30.744z
				 M60.294,27.888c1.578-0.902,2.104-2.931,1.202-4.434c-0.902-1.503-2.931-2.029-4.434-1.127
				c-1.503,0.901-2.028,2.855-1.127,4.358C56.836,28.264,58.791,28.79,60.294,27.888z"/>
		</g>
		<path fill="#8EB7CA" d="M41.28,30.744c-0.074,0.075-0.376,0.301-0.525,0.526c-5.712,6.688-11.423,13.452-17.134,20.215
			c-1.052,1.277-0.977,2.556,0.3,3.607c3.457,2.931,6.914,5.861,10.296,8.792c1.428,1.202,2.63,1.128,3.907-0.301
			c3.908-4.584,7.815-9.243,11.725-13.827c1.804-2.104,3.531-4.209,5.335-6.313c0.901-1.051,0.826-2.404-0.226-3.306
			c-0.3-0.301-0.601-0.526-0.977-0.827c-3.307-2.78-6.538-5.561-9.845-8.341C43.31,30.218,42.333,30.067,41.28,30.744z"/>
		<path fill="#E0E0E0" d="M52.103,43.219l-15.03,17.735c-0.526,0.602-1.353,0.677-1.954,0.15l0,0
			c-0.601-0.526-0.676-1.353-0.15-1.954l15.03-17.735c0.526-0.601,1.354-0.677,1.953-0.149l0,0
			C52.479,41.716,52.554,42.617,52.103,43.219z"/>
		<path fill="#E0E0E0" d="M48.194,39.311l-15.03,17.811c-0.526,0.602-1.353,0.677-1.954,0.15l0,0
			c-0.602-0.525-0.677-1.353-0.15-1.954l15.03-17.735c0.525-0.601,1.353-0.676,1.953-0.15l0,0
			C48.646,37.883,48.721,38.785,48.194,39.311z"/>
		<path fill="#E0E0E0" d="M44.737,35.854l-15.03,17.735c-0.526,0.602-1.353,0.677-1.954,0.15l0,0
			c-0.602-0.525-0.676-1.353-0.15-1.953l15.03-17.736c0.525-0.601,1.353-0.676,1.953-0.15l0,0
			C45.113,34.351,45.188,35.253,44.737,35.854z"/>
		<g>
			<path opacity="0.8" fill="#F7AD41" enable-background="new    " d="M14.302,62.833c-5.411,0-9.77-4.359-9.77-9.77
				s4.359-9.771,9.77-9.771s9.77,4.36,9.77,9.771S19.712,62.833,14.302,62.833z M14.302,45.473c-4.208,0-7.665,3.457-7.665,7.666
				c0,4.208,3.457,7.665,7.665,7.665s7.666-3.457,7.666-7.665C21.967,48.93,18.585,45.473,14.302,45.473z"/>
			<path opacity="0.6" fill="#F7AD41" enable-background="new    " d="M14.302,66.44C7.012,66.44,1,60.429,1,53.063
				c0-7.364,6.012-13.377,13.377-13.377s13.377,6.013,13.377,13.377C27.754,60.429,21.667,66.44,14.302,66.44z M14.302,41.866
				c-6.162,0-11.272,5.035-11.272,11.272s5.035,11.272,11.272,11.272c6.162,0,11.273-5.035,11.273-11.272
				S20.539,41.866,14.302,41.866z"/>
			<circle fill="#F7AD41" cx="14.302" cy="53.063" r="5.712"/>
		</g>
		<path fill="#F7AD41" d="M73.596,10.303c-1.128-1.203-3.081-1.127-4.51-0.677c-1.729,0.526-3.307,1.653-4.583,2.856
			c-1.429,1.353-2.556,3.006-3.457,4.81c0.075,0,0.075,0,0.149,0c0.075,0,0.075,0,0.15,0l0,0h0.076l0,0
			c0.074,0,0.149,0.075,0.225,0.075c0.074,0,0.151,0,0.151,0c0.224,0,0.375,0.075,0.525,0.15l0,0c0.226,0,0.45,0.15,0.676,0.226
			c0.601-1.127,1.277-2.104,2.104-3.081c0.978-1.127,2.105-2.104,3.458-2.781c0.977-0.451,2.555-1.052,3.532-0.225
			c0.9,0.751,0.375,2.33,0,3.156c-0.603,1.353-1.503,2.48-2.556,3.457c-2.18,2.104-5.109,3.307-8.041,4.133
			c-0.15,0.075-0.375,0.15-0.526,0.226c-0.075,0.075-0.225,0.075-0.3,0.15c-0.076,0.15-0.151,0.301-0.226,0.451h0.074
			c-0.149,0.827,0.376,1.579,1.279,1.353c3.605-0.977,7.063-2.48,9.692-5.186C73.521,17.367,76.226,13.008,73.596,10.303z"/>
	</g>
</g>
</svg>
