<?xml version="1.0" encoding="utf-8"?>
<!-- Generator: Adobe Illustrator 15.1.0, SVG Export Plug-In . SVG Version: 6.00 Build 0)  -->
<!DOCTYPE svg PUBLIC "-//W3C//DTD SVG 1.1//EN" "http://www.w3.org/Graphics/SVG/1.1/DTD/svg11.dtd">
<svg version="1.1" id="Слой_1" xmlns="http://www.w3.org/2000/svg" xmlns:xlink="http://www.w3.org/1999/xlink" x="0px" y="0px"
	 width="76.41px" height="76.41px" viewBox="0 0 76.41 76.41" enable-background="new 0 0 76.41 76.41" xml:space="preserve">
<g id="Layer_1_1_">
</g>
<g id="Isolation_Mode">
	<g>
		<g>
			<g>
				<g>
					<circle fill="#444342" cx="11.157" cy="67.983" r="7.568"/>
					<circle fill="#F7AD41" cx="11.157" cy="67.983" r="4.47"/>
				</g>
				<g>
					<circle fill="#444342" cx="34.928" cy="67.983" r="7.568"/>
					<circle fill="#F7AD41" cx="34.928" cy="67.983" r="4.47"/>
				</g>
				<path fill="#444342" d="M38.078,39.385l-9.092-14.323c-1.066-1.676-2.895-2.692-4.876-2.692H8.618
					c-1.626,0-2.997,1.321-2.997,2.997v27.226h32.914V40.198L38.078,39.385z M36.604,50.662H20.91v-1.981
					c0-4.165-3.353-7.517-7.518-7.517H7.551V26.18c0-1.016,0.812-1.879,1.879-1.879h13.512c1.929,0,3.758,1.016,4.825,2.641
					l8.025,12.443h-5.08v-1.929h-1.27v5.688h1.27v-1.98h5.892V50.662z"/>
				<path fill="#444342" d="M56.362,48.021v17.575v1.066h-3.655L49.1,61.887c-1.32,1.932-3.403,3.251-5.841,3.606
					c-1.066-3.707-4.47-6.399-8.534-6.399c-4.063,0-7.517,2.742-8.533,6.502H19.69c-1.016-3.76-4.47-6.502-8.533-6.502
					c-3.099,0-5.892,1.626-7.467,4.063c-1.574-1.524-2.54-3.657-2.54-6.043V43.043c0-1.422,0.356-2.743,0.966-3.911
					c0.609-1.118,2.286-0.71,2.286,0.56v14.119h35.3V40.454c3.15,0.659,6.654,1.522,7.417,2.082
					c1.828,1.369,3.098,3.504,3.403,5.892h2.185v-4.826c0-0.965-0.661-1.828-1.576-2.133l-3.25-0.965v-2.033h4.826
					c2.031,0,3.655,1.626,3.655,3.658v0.812v4.166"/>
			</g>
			<rect x="55.245" y="61.278" fill="#444342" width="20.725" height="1.929"/>
		</g>
		<g>
			<g>
				<g>
					<g>
						<g>
							<path fill="#F7AD41" d="M28.732,6.066l0.355-2.692c4.47,0.762,8.584,2.997,11.632,6.349
								c3.047,3.353,4.928,7.669,5.231,12.191l-2.691,0.101c-0.307-3.86-1.88-7.517-4.521-10.413
								C36.096,8.707,32.592,6.777,28.732,6.066z"/>
						</g>
					</g>
				</g>
			</g>
			<g>
				<g>
					<g>
						<g>
							<path fill="#F7AD41" d="M27.97,12.059l0.355-2.691c3.048,0.558,5.841,2.132,7.924,4.418c2.082,2.286,3.403,5.232,3.656,8.33
								l-2.691,0.102c-0.254-2.438-1.27-4.774-2.945-6.603C32.592,13.837,30.408,12.567,27.97,12.059z"/>
						</g>
					</g>
				</g>
			</g>
			<g>
				<g>
					<g>
						<g>
							<path fill="#F7AD41" d="M27.259,17.9l0.355-2.691c1.676,0.406,3.2,1.27,4.368,2.54c1.167,1.27,1.93,2.895,2.133,4.571
								l-2.742,0.101c-0.203-1.066-0.711-2.031-1.423-2.844C29.24,18.764,28.274,18.205,27.259,17.9z"/>
						</g>
					</g>
				</g>
			</g>
		</g>
		<circle fill="#5A8F4B" cx="60.021" cy="57.672" r="2.845"/>
		<circle fill="#5A8F4B" cx="66.167" cy="57.672" r="2.845"/>
		<circle fill="#5A8F4B" cx="72.515" cy="57.672" r="2.845"/>
		<circle fill="#5A8F4B" cx="60.021" cy="51.374" r="2.845"/>
		<circle fill="#5A8F4B" cx="66.167" cy="51.374" r="2.845"/>
		<circle fill="#5A8F4B" cx="60.021" cy="44.516" r="2.844"/>
		<circle fill="#5A8F4B" cx="66.167" cy="44.516" r="2.844"/>
		<circle fill="#5A8F4B" cx="72.515" cy="51.374" r="2.845"/>
		<circle fill="#444342" cx="60.021" cy="44.517" r="1.372"/>
		<circle fill="#444342" cx="66.167" cy="44.517" r="1.372"/>
		<circle fill="#444342" cx="60.021" cy="51.373" r="1.371"/>
		<circle fill="#444342" cx="66.167" cy="51.373" r="1.371"/>
		<circle fill="#444342" cx="60.021" cy="57.671" r="1.371"/>
		<circle fill="#444342" cx="66.167" cy="57.671" r="1.371"/>
		<path fill="#444342" d="M72.515,50.002c0.758,0,1.372,0.614,1.372,1.371s-0.614,1.371-1.372,1.371c-0.755,0-1.37-0.614-1.37-1.371
			S71.76,50.002,72.515,50.002z"/>
		<path fill="#444342" d="M72.515,56.301c0.758,0,1.372,0.614,1.372,1.37c0,0.758-0.614,1.371-1.372,1.371
			c-0.755,0-1.37-0.613-1.37-1.371C71.145,56.915,71.76,56.301,72.515,56.301z"/>
	</g>
</g>
<g id="Layer_1_2_">
</g>
</svg>
