<?xml version="1.0" encoding="utf-8"?>
<!-- Generator: Adobe Illustrator 15.1.0, SVG Export Plug-In . SVG Version: 6.00 Build 0)  -->
<!DOCTYPE svg PUBLIC "-//W3C//DTD SVG 1.1//EN" "http://www.w3.org/Graphics/SVG/1.1/DTD/svg11.dtd">
<svg version="1.1" id="Layer_1" xmlns="http://www.w3.org/2000/svg" xmlns:xlink="http://www.w3.org/1999/xlink" x="0px" y="0px"
	 width="141.732px" height="141.732px" viewBox="0 0 141.732 141.732" enable-background="new 0 0 141.732 141.732"
	 xml:space="preserve">
<path fill="#454443" d="M122.667,136.517c0,0.801-0.6,1.5-1.4,1.5h-100.8c-0.8,0-1.4-0.699-1.4-1.5V5.216c0-0.8,0.6-1.5,1.4-1.5
	h100.8c0.801,0,1.4,0.7,1.4,1.5V136.517z"/>
<path fill="#F3F3F3" d="M28.624,10.374h85.825c0.529,0,1.189,0.46,1.189,1.151v115.479c0,0.461-0.527,1.036-1.189,1.036H28.624
	c-0.793,0-1.19-0.461-1.19-1.036V11.525C27.566,10.834,27.963,10.374,28.624,10.374L28.624,10.374L28.624,10.374z"/>
<path fill="#CCCBCB" d="M71.889,74.848c11.398,0,20.838,9.325,20.838,20.838c0,11.514-9.324,20.841-20.838,20.841
	S51.05,107.199,51.05,95.686C51.05,84.29,60.375,74.848,71.889,74.848L71.889,74.848z"/>
<path fill="#4D7AB7" d="M71.889,95.686l11.398-17.499c5.871,3.801,9.439,10.477,9.439,17.499c0,11.514-9.324,20.841-20.838,20.841
	S51.05,107.199,51.05,95.686c0-11.396,9.325-20.838,20.839-20.838V95.686L71.889,95.686z"/>
<path fill="#454443" d="M71.889,95.686l20.492-3.453c0.117,1.036,0.346,2.419,0.346,3.453c0,11.514-9.324,20.841-20.838,20.841
	S51.05,107.199,51.05,95.686c0-11.396,9.325-20.838,20.839-20.838V95.686L71.889,95.686z"/>
<path fill="#99CB4F" d="M71.889,95.686l13.815,16.694c-3.799,3.11-8.865,4.952-13.815,4.952c-11.975,0-21.645-9.672-21.645-21.646
	c0-11.856,9.67-21.644,21.645-21.644V95.686L71.889,95.686z"/>
<path fill="#E0E1E0" d="M101.822,62.759c-2.879,0-5.756,0-8.75,0c0-6.678,0-9.44,0-16.119c2.994,0,5.871,0,8.75,0
	C101.822,53.318,101.822,56.081,101.822,62.759L101.822,62.759L101.822,62.759z M89.043,62.759c-2.878,0-5.872,0-8.75,0
	c0-8.521,0-13.126,0-21.646c2.878,0,5.872,0,8.75,0C89.043,49.633,89.043,54.238,89.043,62.759L89.043,62.759L89.043,62.759z
	 M76.264,62.759c-2.879,0-5.758,0-8.635,0c0-9.901,0-16.58,0-26.48c2.877,0,5.756,0,8.635,0
	C76.264,46.179,76.264,52.857,76.264,62.759L76.264,62.759L76.264,62.759z M63.484,62.759c-2.878,0-5.757,0-8.751,0
	c0-7.254,0-12.318,0-19.573c2.994,0,5.873,0,8.751,0C63.484,50.44,63.484,55.505,63.484,62.759L63.484,62.759L63.484,62.759z
	 M50.704,62.759c-2.993,0-5.872,0-8.75,0c0-4.951,0-9.901,0-14.853c2.878,0,5.757,0,8.75,0
	C50.704,52.857,50.704,57.808,50.704,62.759L50.704,62.759L50.704,62.759z"/>
<path fill="#99CA3E" d="M50.704,62.759c-2.993,0-5.872,0-8.75,0c0-2.993,0-5.872,0-8.864c2.878,0,5.757,0,8.75,0
	C50.704,56.772,50.704,59.766,50.704,62.759L50.704,62.759L50.704,62.759z M63.484,62.759c-2.878,0-5.757,0-8.751,0
	c0-4.951,0-7.369,0-12.318c2.994,0,5.873,0,8.751,0C63.484,55.39,63.484,57.808,63.484,62.759L63.484,62.759L63.484,62.759z
	 M76.264,62.759c-2.879,0-5.758,0-8.635,0c0-6.447,0-12.895,0-19.343c2.877,0,5.756,0,8.635,0
	C76.264,49.864,76.264,56.312,76.264,62.759L76.264,62.759L76.264,62.759z M89.043,62.759c-2.878,0-5.872,0-8.75,0
	c0-5.872,0-8.864,0-14.737c2.878,0,5.872,0,8.75,0C89.043,53.895,89.043,56.887,89.043,62.759L89.043,62.759L89.043,62.759z
	 M101.822,62.759c-2.879,0-5.756,0-8.75,0c0-4.491,0-6.103,0-10.707c2.994,0,5.871,0,8.75,0
	C101.822,56.656,101.822,58.268,101.822,62.759L101.822,62.759L101.822,62.759z"/>
<path fill="#4D7AB7" d="M41.954,20.62c13.702,0,46.052,0,59.869,0c0-0.806,0-1.498,0-2.303c-13.816,0-46.167,0-59.869,0
	C41.954,19.123,41.954,19.814,41.954,20.62L41.954,20.62L41.954,20.62z M41.954,24.879c13.702,0,46.052,0,59.869,0
	c0-0.69,0-1.496,0-2.187c-13.816,0-46.167,0-59.869,0C41.954,23.384,41.954,24.189,41.954,24.879L41.954,24.879L41.954,24.879z
	 M41.954,29.141c8.175,0,16.349,0,24.523,0c0-0.691,0-1.498,0-2.188c-8.174,0-16.349,0-24.523,0
	C41.954,27.643,41.954,28.449,41.954,29.141L41.954,29.141L41.954,29.141z"/>
</svg>
