<?xml version="1.0" encoding="utf-8"?>
<!-- Generator: Adobe Illustrator 15.1.0, SVG Export Plug-In . SVG Version: 6.00 Build 0)  -->
<!DOCTYPE svg PUBLIC "-//W3C//DTD SVG 1.1//EN" "http://www.w3.org/Graphics/SVG/1.1/DTD/svg11.dtd">
<svg version="1.1" id="Слой_1" xmlns="http://www.w3.org/2000/svg" xmlns:xlink="http://www.w3.org/1999/xlink" x="0px" y="0px"
	 width="76.41px" height="76.41px" viewBox="0 0 76.41 76.41" enable-background="new 0 0 76.41 76.41" xml:space="preserve">
<g id="Layer_1_1_">
</g>
<g id="Ñëîé_3">
	<g>
		<g>
			<path fill="#444342" d="M63.841,71.412c0,0.396-0.297,0.742-0.693,0.742H13.262c-0.396,0-0.693-0.346-0.693-0.742V6.432
				c0-0.396,0.297-0.742,0.693-0.742h49.885c0.396,0,0.693,0.347,0.693,0.742V71.412z"/>
			<g>
				<rect x="17.122" y="10.292" fill="#F2F2F2" width="41.077" height="55.579"/>
			</g>
			<g>
				<rect x="19.943" y="16.182" fill="#4B79B7" width="16.975" height="24.449"/>
				<g>
					<rect x="39.294" y="21.032" fill="#F7AD41" width="16.975" height="0.594"/>
					<rect x="39.294" y="23.358" fill="#F7AD41" width="16.975" height="0.594"/>
					<rect x="39.294" y="25.635" fill="#F7AD41" width="16.975" height="0.594"/>
					<rect x="39.294" y="27.96" fill="#F7AD41" width="16.975" height="0.594"/>
					<rect x="39.294" y="30.237" fill="#F7AD41" width="16.975" height="0.594"/>
				</g>
				<g>
					<rect x="39.294" y="33.256" fill="#F7AD41" width="16.975" height="0.594"/>
					<rect x="39.294" y="35.533" fill="#F7AD41" width="16.975" height="0.594"/>
					<rect x="39.294" y="37.858" fill="#F7AD41" width="16.975" height="0.594"/>
					<rect x="39.294" y="40.135" fill="#F7AD41" width="16.975" height="0.594"/>
				</g>
			</g>
			<g>
				<path fill="#F7AD41" d="M48.399,13.212H28.01c-0.544,0-0.94-0.445-0.94-1.039V6.037c0-0.544,0.445-1.04,0.94-1.04h20.439
					c0.544,0,0.94,0.445,0.94,1.04v6.186C49.39,12.767,48.944,13.212,48.399,13.212z M28.01,5.591c-0.248,0-0.396,0.198-0.396,0.445
					v6.186c0,0.248,0.198,0.445,0.396,0.445h20.439c0.247,0,0.396-0.198,0.396-0.445V6.037c0-0.248-0.197-0.445-0.396-0.445H28.01z"
					/>
			</g>
			<g>
				<path fill="#444342" d="M29.049,13.51H28.01c-0.693,0-1.237-0.594-1.237-1.336v-1.386c0-0.347,0.247-0.594,0.544-0.594
					c0.297,0,0.544,0.247,0.544,0.594v1.386c0,0.099,0.049,0.148,0.148,0.148h1.039c0.297,0,0.544,0.248,0.544,0.594
					C29.594,13.262,29.346,13.51,29.049,13.51z"/>
			</g>
			<g>
				<path fill="#444342" d="M48.399,13.51H47.36c-0.297,0-0.544-0.248-0.544-0.594c0-0.346,0.247-0.594,0.544-0.594h1.039
					c0.1,0,0.148-0.049,0.148-0.148v-1.386c0-0.347,0.248-0.594,0.545-0.594s0.544,0.247,0.544,0.594v1.386
					C49.637,12.916,49.093,13.51,48.399,13.51z"/>
			</g>
			<path fill="#CCCBCB" d="M48.499,5.591c0,0.396-0.297,0.742-0.693,0.742H28.653c-0.396,0-0.693-0.347-0.693-0.742V4.997
				c0-0.396,0.297-0.742,0.693-0.742h19.202c0.396,0,0.692,0.347,0.692,0.742v0.594H48.499z"/>
			<path fill="#BCBEC0" d="M48.499,5.195c0,0.198-0.297,0.346-0.693,0.346H28.653c-0.396,0-0.693-0.148-0.693-0.346V4.898
				c0-0.198,0.297-0.347,0.693-0.347h19.202c0.396,0,0.692,0.148,0.692,0.347v0.297H48.499z"/>
			<g>
				<g>
					<g>
						<path fill="#F7AD41" d="M56.417,62.355H19.696c-0.099,0-0.148-0.098-0.148-0.148V43.352h0.297v18.707h36.573V62.355z"/>
						<path fill="#F7AD41" d="M56.565,62.504h-36.87c-0.148,0-0.297-0.148-0.297-0.297V43.203h0.594V61.91h36.573V62.504z
							 M19.646,43.5v18.707v0.051H56.22v-0.051H19.696L19.646,43.5L19.646,43.5z"/>
					</g>
				</g>
				<g>
					<line fill="none" x1="19.696" y1="45.926" x2="56.417" y2="45.926"/>
					<rect x="19.696" y="45.629" fill="#F7AD41" width="36.721" height="0.594"/>
				</g>
				<g>
					<line fill="none" x1="19.696" y1="50.133" x2="56.417" y2="50.133"/>
					<rect x="19.696" y="49.836" fill="#F7AD41" width="36.721" height="0.594"/>
				</g>
				<g>
					<line fill="none" x1="19.696" y1="54.338" x2="56.417" y2="54.338"/>
					<rect x="19.696" y="54.041" fill="#F7AD41" width="36.721" height="0.596"/>
				</g>
				<g>
					<line fill="none" x1="19.696" y1="58.545" x2="56.417" y2="58.545"/>
					<rect x="19.696" y="58.248" fill="#F7AD41" width="36.721" height="0.594"/>
				</g>
			</g>
		</g>
		<g>
			<ellipse fill="#BCBEC0" cx="28.406" cy="28.258" rx="5.146" ry="5.84"/>
			<path fill="#BCBEC0" d="M36.671,40.482c-0.99-4.158-4.306-7.177-8.314-7.177s-7.325,3.068-8.314,7.177H36.671z"/>
		</g>
	</g>
</g>
</svg>
