<?xml version="1.0" encoding="utf-8"?><!DOCTYPE svg PUBLIC "-//W3C//DTD SVG 1.1//EN" "http://www.w3.org/Graphics/SVG/1.1/DTD/svg11.dtd"><svg version="1.1" id="Слой_1" xmlns="http://www.w3.org/2000/svg" xmlns:xlink="http://www.w3.org/1999/xlink" x="0px" y="0px" width="76.41px" height="76.41px" viewBox="0 0 76.41 76.41" enable-background="new 0 0 76.41 76.41" xml:space="preserve"><g><g><path fill="#454443" d="M74.342,66.508c0,0.693-0.545,1.239-1.239,1.239H3.542c-0.694,0-1.239-0.546-1.239-1.239V24.514c0-0.694,0.545-1.239,1.239-1.239h69.56c0.694,0,1.239,0.545,1.239,1.239V66.508z"/></g><g><rect x="8.5" y="29.571" fill="#EFEFEF" width="45.216" height="30.244"/></g><g><circle fill="#FFD45E" cx="64.179" cy="35.173" r="4.462"/></g><g><rect x="57.484" y="43.701" fill="#FFD45E" width="3.224" height="2.627"/></g><g><rect x="62.442" y="43.701" fill="#FFD45E" width="3.223" height="2.627"/></g><g><rect x="67.4" y="43.701" fill="#FFD45E" width="3.223" height="2.627"/></g><g><rect x="57.484" y="48.808" fill="#FFD45E" width="3.224" height="2.628"/></g><g><rect x="62.442" y="48.808" fill="#FFD45E" width="3.223" height="2.628"/></g><g><rect x="67.4" y="48.808" fill="#FFD45E" width="3.223" height="2.628"/></g><g><path fill="#585858" d="M48.115,53.419H15.442c0,1.14,4.413,2.082,10.61,2.429v1.537h11.453v-1.537C43.701,55.501,48.115,54.559,48.115,53.419z"/></g><g><g><path fill="#585858" d="M22.63,35.024c0.843,1.389,1.735,2.776,2.083,4.363c0.347,1.686-0.248,3.371-0.793,4.958c-0.347,0.991-0.694,1.934-0.595,2.975c0.05,1.239,1.19,2.182,2.083,2.876c0.446,0.347,1.239-0.596,0.793-0.942c-0.991-0.793-1.934-1.636-1.834-2.975c0.149-1.339,0.843-2.628,1.19-3.917c0.843-3.074-0.396-5.503-1.933-8.082C23.226,33.686,22.333,34.529,22.63,35.024L22.63,35.024z"/></g></g><g><g><path fill="#585858" d="M28.877,35.024c0.843,1.389,1.735,2.776,2.083,4.363c0.347,1.686-0.248,3.371-0.793,4.958c-0.347,0.991-0.694,1.934-0.595,2.975c0.05,1.239,1.19,2.182,2.083,2.876c0.446,0.347,1.239-0.596,0.793-0.942c-0.992-0.793-1.934-1.636-1.834-2.975c0.149-1.339,0.843-2.628,1.19-3.917c0.843-3.074-0.396-5.503-1.934-8.082C29.522,33.736,28.63,34.579,28.877,35.024L28.877,35.024z"/></g></g><g><g><path fill="#585858" d="M35.869,35.024c0.843,1.389,1.735,2.776,2.082,4.363c0.347,1.686-0.248,3.371-0.793,4.958c-0.347,0.991-0.694,1.934-0.595,2.975c0.05,1.239,1.19,2.182,2.082,2.876c0.446,0.347,1.24-0.596,0.794-0.942c-0.992-0.793-1.934-1.636-1.834-2.975c0.148-1.339,0.842-2.628,1.189-3.917c0.843-3.074-0.397-5.503-1.934-8.082C36.463,33.736,35.571,34.579,35.869,35.024L35.869,35.024z"/></g></g></g></svg>
