<?xml version="1.0" encoding="utf-8"?>
<!-- Generator: Adobe Illustrator 15.1.0, SVG Export Plug-In . SVG Version: 6.00 Build 0)  -->
<!DOCTYPE svg PUBLIC "-//W3C//DTD SVG 1.1//EN" "http://www.w3.org/Graphics/SVG/1.1/DTD/svg11.dtd">
<svg version="1.1" id="Layer_1" xmlns="http://www.w3.org/2000/svg" xmlns:xlink="http://www.w3.org/1999/xlink" x="0px" y="0px"
	 width="141.732px" height="141.732px" viewBox="0 0 141.732 141.732" enable-background="new 0 0 141.732 141.732"
	 xml:space="preserve">
<g>
	<path fill="#3694B9" d="M57.785,102.358v1.463l24.668-4.383c1.3-5.356,3.895-10.225,7.303-14.444
		c4.868-5.032,7.792-11.849,7.792-19.313c0-15.419-12.497-27.752-27.755-27.752c-15.417,0-27.752,12.496-27.752,27.752
		c0,7.464,2.922,14.281,7.791,19.313C53.889,90.025,56.648,95.869,57.785,102.358z"/>
</g>
<g>
	<polygon fill="#676767" points="81.805,106.905 81.805,102.521 57.785,106.739 57.785,111.288 	"/>
</g>
<g>
	<path fill="#676767" d="M81.805,114.206v-4.544l-24.02,4.222v1.783c0,0.975,0.325,1.786,0.811,2.596L81.805,114.206z"/>
</g>
<g>
	<path fill="#676767" d="M60.707,120.701c2.272,1.621,5.355,2.596,9.088,2.596c6.006,0,10.877-2.757,11.848-6.329L60.707,120.701z"
		/>
</g>
<g>
	<g>
		<g>
			<g>
				<g>
					<path fill="#454443" d="M89.977,16.572l0.446-5.016c8.471,1.002,16.385,4.904,22.405,10.924
						c6.02,6.02,9.922,13.934,10.926,22.406l-5.017,0.446c-1.004-7.246-4.237-14.045-9.475-19.285
						C104.133,20.808,97.333,17.575,89.977,16.572z"/>
				</g>
			</g>
		</g>
	</g>
	<g>
		<g>
			<g>
				<g>
					<path fill="#454443" d="M89.084,27.942l0.446-5.127c5.798,0.779,11.147,3.455,15.273,7.579
						c4.124,4.125,6.799,9.475,7.69,15.273l-5.127,0.445c-0.668-4.571-2.898-8.806-6.131-12.15
						C98.002,30.84,93.656,28.611,89.084,27.942z"/>
				</g>
			</g>
		</g>
	</g>
	<g>
		<g>
			<g>
				<g>
					<path fill="#454443" d="M88.305,38.979l0.446-5.128c3.233,0.558,6.131,2.117,8.472,4.459c2.34,2.341,3.901,5.239,4.459,8.36
						l-5.127,0.445c-0.446-2.005-1.45-3.79-2.898-5.238C92.095,40.426,90.199,39.424,88.305,38.979z"/>
				</g>
			</g>
		</g>
	</g>
</g>
</svg>
