<?xml version="1.0" encoding="utf-8"?>
<!-- Generator: Adobe Illustrator 15.1.0, SVG Export Plug-In . SVG Version: 6.00 Build 0)  -->
<!DOCTYPE svg PUBLIC "-//W3C//DTD SVG 1.1//EN" "http://www.w3.org/Graphics/SVG/1.1/DTD/svg11.dtd">
<svg version="1.1" id="Layer_1" xmlns="http://www.w3.org/2000/svg" xmlns:xlink="http://www.w3.org/1999/xlink" x="0px" y="0px"
	 width="141.732px" height="141.732px" viewBox="0 0 141.732 141.732" enable-background="new 0 0 141.732 141.732"
	 xml:space="preserve">
<path fill="#231F20" d="M127.602,89.028c0.478-0.497,1.061-0.814,1.677-0.956c-0.204-0.922-0.533-1.831-0.991-2.673
	c-1.254,0.629-2.824,0.434-3.895-0.589c-1.066-1.047-1.311-2.607-0.719-3.885c-0.875-0.428-1.801-0.73-2.746-0.907
	c-0.117,0.616-0.411,1.208-0.883,1.698c-1.306,1.347-3.468,1.396-4.816,0.087c-0.29-0.287-0.514-0.605-0.684-0.95
	c-0.862,0.41-1.679,0.941-2.421,1.595c1.092,1.315,1.04,3.273-0.178,4.528c-0.836,0.876-2.029,1.198-3.134,0.973
	c-0.216,0.928-0.307,1.885-0.263,2.831c0.867-0.011,1.735,0.31,2.411,0.955c1.353,1.307,1.389,3.463,0.079,4.82
	c-0.089,0.088-0.182,0.175-0.28,0.254c0.298,0.376,0.625,0.746,0.974,1.094c0.354,0.338,0.727,0.642,1.111,0.924
	c0.079-0.097,0.157-0.195,0.246-0.283c1.312-1.359,3.466-1.388,4.824-0.078c0.668,0.645,1.013,1.513,1.033,2.37
	c0.951,0.01,1.901-0.106,2.823-0.352c-0.261-1.102,0.025-2.302,0.863-3.17c0.165-0.164,0.333-0.311,0.515-0.43
	c1.203-0.833,2.832-0.808,4.011,0.099c0.087-0.099,0.168-0.208,0.245-0.313c0.519-0.671,0.941-1.404,1.266-2.168
	c-0.354-0.158-0.688-0.377-0.987-0.659C126.327,92.536,126.292,90.369,127.602,89.028z M123.05,94.231
	c-0.425,0.44-0.904,0.792-1.414,1.063c-2.077,1.093-4.709,0.791-6.488-0.925c-2.218-2.157-2.282-5.688-0.131-7.902
	c2.146-2.224,5.682-2.283,7.902-0.137c1.911,1.854,2.221,4.741,0.893,6.918C123.599,93.598,123.348,93.925,123.05,94.231z"/>
<path fill="#231F20" d="M95.255,89.028c0.477-0.497,1.064-0.814,1.677-0.956c-0.203-0.922-0.532-1.831-0.991-2.673
	c-1.252,0.629-2.821,0.434-3.894-0.589c-1.064-1.047-1.31-2.607-0.719-3.885c-0.875-0.428-1.799-0.73-2.746-0.907
	c-0.118,0.616-0.413,1.208-0.883,1.698c-1.308,1.347-3.468,1.396-4.817,0.087c-0.29-0.287-0.516-0.605-0.684-0.95
	c-0.861,0.41-1.68,0.941-2.421,1.595c1.093,1.315,1.039,3.273-0.178,4.528c-0.837,0.876-2.03,1.198-3.134,0.973
	c-0.218,0.928-0.308,1.885-0.263,2.831c0.867-0.011,1.736,0.31,2.413,0.955c1.351,1.307,1.386,3.463,0.079,4.82
	c-0.09,0.088-0.184,0.175-0.279,0.254c0.295,0.376,0.622,0.746,0.972,1.094c0.354,0.338,0.728,0.642,1.109,0.924
	c0.082-0.097,0.158-0.195,0.247-0.283c1.312-1.359,3.466-1.388,4.825-0.078c0.667,0.645,1.014,1.513,1.034,2.37
	c0.95,0.01,1.901-0.106,2.823-0.352c-0.261-1.102,0.025-2.302,0.863-3.17c0.165-0.164,0.333-0.311,0.512-0.43
	c1.206-0.833,2.834-0.808,4.013,0.099c0.087-0.099,0.168-0.208,0.245-0.313c0.518-0.671,0.943-1.404,1.266-2.168
	c-0.354-0.158-0.69-0.377-0.987-0.659C93.981,92.536,93.945,90.369,95.255,89.028z M90.705,94.231
	c-0.425,0.44-0.902,0.792-1.416,1.063c-2.075,1.093-4.707,0.791-6.486-0.925c-2.219-2.157-2.283-5.688-0.131-7.902
	c2.146-2.224,5.683-2.283,7.902-0.137c1.913,1.854,2.218,4.741,0.893,6.918C91.253,93.598,91.002,93.925,90.705,94.231z"/>
<path fill="#231F20" d="M62.91,89.028c0.478-0.497,1.064-0.814,1.677-0.956c-0.205-0.922-0.53-1.831-0.988-2.673
	c-1.254,0.629-2.824,0.434-3.895-0.589c-1.066-1.047-1.31-2.607-0.72-3.885c-0.876-0.428-1.799-0.73-2.746-0.907
	c-0.118,0.616-0.412,1.208-0.883,1.698c-1.307,1.347-3.469,1.396-4.816,0.087c-0.291-0.287-0.515-0.605-0.685-0.95
	c-0.86,0.41-1.679,0.941-2.422,1.595c1.093,1.315,1.041,3.273-0.178,4.528c-0.835,0.876-2.028,1.198-3.133,0.973
	c-0.217,0.928-0.308,1.885-0.264,2.831c0.869-0.011,1.737,0.31,2.413,0.955c1.354,1.307,1.388,3.463,0.08,4.82
	c-0.09,0.088-0.183,0.175-0.28,0.254c0.298,0.376,0.622,0.746,0.973,1.094c0.354,0.338,0.728,0.642,1.11,0.924
	c0.081-0.097,0.159-0.195,0.246-0.283c1.312-1.359,3.467-1.388,4.824-0.078c0.668,0.645,1.015,1.513,1.035,2.37
	c0.951,0.01,1.902-0.106,2.824-0.352c-0.261-1.102,0.024-2.302,0.863-3.17c0.163-0.164,0.332-0.311,0.512-0.43
	c1.205-0.833,2.834-0.808,4.012,0.099c0.088-0.099,0.169-0.208,0.247-0.313c0.517-0.671,0.941-1.404,1.266-2.168
	c-0.354-0.158-0.69-0.377-0.987-0.659C61.637,92.536,61.6,90.369,62.91,89.028z M58.358,94.231c-0.423,0.44-0.901,0.792-1.414,1.063
	c-2.077,1.093-4.707,0.791-6.487-0.925c-2.219-2.157-2.282-5.688-0.132-7.902c2.146-2.224,5.682-2.283,7.902-0.137
	c1.913,1.854,2.219,4.741,0.893,6.918C58.908,93.598,58.656,93.925,58.358,94.231z"/>
<g>
	<path fill="#231F20" d="M122.026,108.134H19.542c-9.762,0-17.705-7.945-17.705-17.708c0-9.763,7.943-17.704,17.705-17.704h102.484
		c9.76,0,17.706,7.941,17.706,17.704C139.732,100.189,131.786,108.134,122.026,108.134z M19.542,78.101
		c-6.796,0-12.326,5.529-12.326,12.325c0,6.8,5.53,12.328,12.326,12.328h102.484c6.794,0,12.325-5.528,12.325-12.328
		c0-6.796-5.531-12.325-12.325-12.325H19.542z"/>
</g>
<path fill="#231F20" d="M31.066,89.03c0.478-0.499,1.063-0.815,1.677-0.958c-0.205-0.922-0.531-1.831-0.988-2.673
	c-1.255,0.629-2.825,0.434-3.895-0.589c-1.066-1.046-1.31-2.605-0.72-3.883c-0.875-0.43-1.799-0.731-2.747-0.909
	c-0.117,0.617-0.411,1.208-0.882,1.698c-1.308,1.346-3.469,1.396-4.816,0.087c-0.291-0.288-0.516-0.605-0.684-0.951
	c-0.86,0.411-1.679,0.941-2.422,1.596c1.093,1.315,1.041,3.272-0.177,4.527c-0.836,0.876-2.029,1.198-3.133,0.973
	c-0.217,0.928-0.308,1.885-0.265,2.832c0.87-0.012,1.738,0.31,2.413,0.955c1.354,1.306,1.388,3.463,0.081,4.819
	c-0.09,0.089-0.183,0.175-0.281,0.254c0.298,0.376,0.622,0.746,0.973,1.094c0.354,0.338,0.728,0.642,1.11,0.925
	c0.081-0.098,0.158-0.196,0.245-0.284c1.313-1.359,3.467-1.388,4.825-0.078c0.668,0.646,1.014,1.513,1.035,2.37
	c0.951,0.01,1.901-0.105,2.824-0.352c-0.261-1.1,0.023-2.301,0.862-3.17c0.164-0.164,0.332-0.311,0.512-0.429
	c1.205-0.834,2.834-0.809,4.012,0.099c0.088-0.099,0.168-0.209,0.246-0.313c0.517-0.672,0.941-1.405,1.266-2.169
	c-0.354-0.158-0.69-0.375-0.987-0.659C29.792,92.537,29.755,90.369,31.066,89.03z M26.514,94.231
	c-0.423,0.44-0.901,0.792-1.414,1.064c-2.078,1.092-4.707,0.792-6.487-0.925c-2.219-2.158-2.282-5.688-0.132-7.903
	c2.146-2.224,5.682-2.282,7.901-0.136c1.914,1.854,2.22,4.742,0.893,6.917C27.063,93.598,26.812,93.925,26.514,94.231z"/>
<g>
	<path fill="#3694B9" d="M17.019,60.35v0.607l10.243-1.819c0.54-2.224,1.617-4.246,3.033-5.998c2.021-2.089,3.235-4.92,3.235-8.019
		c0-6.402-5.189-11.523-11.524-11.523c-6.401,0-11.523,5.188-11.523,11.523c0,3.099,1.213,5.93,3.235,8.019
		C15.401,55.23,16.546,57.657,17.019,60.35z"/>
</g>
<g>
	<polygon fill="#676767" points="26.992,62.238 26.992,60.417 17.019,62.17 17.019,64.058 	"/>
</g>
<g>
	<path fill="#676767" d="M26.992,65.27v-1.887l-9.973,1.752v0.741c0,0.405,0.135,0.742,0.336,1.078L26.992,65.27z"/>
</g>
<g>
	<path fill="#676767" d="M18.232,67.966c0.943,0.672,2.223,1.078,3.773,1.078c2.494,0,4.516-1.145,4.919-2.628L18.232,67.966z"/>
</g>
<g>
	<path fill="#3694B9" d="M50.222,60.35v0.607l10.243-1.819c0.54-2.224,1.617-4.246,3.032-5.998c2.021-2.089,3.234-4.92,3.234-8.019
		c0-6.402-5.188-11.523-11.523-11.523c-6.401,0-11.522,5.188-11.522,11.523c0,3.099,1.213,5.93,3.234,8.019
		C48.604,55.23,49.75,57.657,50.222,60.35z"/>
</g>
<g>
	<polygon fill="#676767" points="60.195,62.238 60.195,60.417 50.222,62.17 50.222,64.058 	"/>
</g>
<g>
	<path fill="#676767" d="M60.195,65.27v-1.887l-9.973,1.752v0.741c0,0.405,0.135,0.742,0.337,1.078L60.195,65.27z"/>
</g>
<g>
	<path fill="#676767" d="M51.435,67.966c0.943,0.672,2.224,1.078,3.773,1.078c2.493,0,4.516-1.145,4.919-2.628L51.435,67.966z"/>
</g>
<g>
	<path fill="#3694B9" d="M84.557,60.35v0.607l10.242-1.819c0.539-2.224,1.617-4.246,3.031-5.998c2.023-2.089,3.236-4.92,3.236-8.019
		c0-6.402-5.189-11.523-11.525-11.523c-6.401,0-11.521,5.188-11.521,11.523c0,3.099,1.212,5.93,3.234,8.019
		C82.938,55.23,84.083,57.657,84.557,60.35z"/>
</g>
<g>
	<polygon fill="#676767" points="94.528,62.238 94.528,60.417 84.557,62.17 84.557,64.058 	"/>
</g>
<g>
	<path fill="#676767" d="M94.528,65.27v-1.887l-9.972,1.752v0.741c0,0.405,0.133,0.742,0.336,1.078L94.528,65.27z"/>
</g>
<g>
	<path fill="#676767" d="M85.768,67.966c0.945,0.672,2.224,1.078,3.773,1.078c2.495,0,4.518-1.145,4.919-2.628L85.768,67.966z"/>
</g>
<g>
	<path fill="#3694B9" d="M115.696,60.35v0.607l10.243-1.819c0.539-2.224,1.617-4.246,3.033-5.998
		c2.021-2.089,3.234-4.92,3.234-8.019c0-6.402-5.189-11.523-11.523-11.523c-6.403,0-11.523,5.188-11.523,11.523
		c0,3.099,1.213,5.93,3.234,8.019C114.079,55.23,115.225,57.657,115.696,60.35z"/>
</g>
<g>
	<polygon fill="#676767" points="125.67,62.238 125.67,60.417 115.696,62.17 115.696,64.058 	"/>
</g>
<g>
	<path fill="#676767" d="M125.67,65.27v-1.887l-9.974,1.752v0.741c0,0.405,0.135,0.742,0.336,1.078L125.67,65.27z"/>
</g>
<g>
	<path fill="#676767" d="M116.91,67.966c0.942,0.672,2.222,1.078,3.773,1.078c2.492,0,4.516-1.145,4.919-2.628L116.91,67.966z"/>
</g>
</svg>
