<?xml version="1.0" encoding="utf-8"?>
<!-- Generator: Adobe Illustrator 15.1.0, SVG Export Plug-In . SVG Version: 6.00 Build 0)  -->
<!DOCTYPE svg PUBLIC "-//W3C//DTD SVG 1.1//EN" "http://www.w3.org/Graphics/SVG/1.1/DTD/svg11.dtd">
<svg version="1.1" id="Layer_1" xmlns="http://www.w3.org/2000/svg" xmlns:xlink="http://www.w3.org/1999/xlink" x="0px" y="0px"
	 width="141.732px" height="141.732px" viewBox="0 0 141.732 141.732" enable-background="new 0 0 141.732 141.732"
	 xml:space="preserve">
<rect x="78.007" y="18.751" fill="#4D7AB7" width="50.513" height="2.078"/>
<rect x="55.855" y="27.744" transform="matrix(0.7181 -0.6959 0.6959 0.7181 -0.5263 56.268)" fill="#4D7AB7" width="26.688" height="2.079"/>
<g>
	<path fill="#3694B9" d="M20.99,82.229v1.313l22.13-3.932c1.166-4.805,3.494-9.174,6.553-12.959
		c4.367-4.514,6.989-10.629,6.989-17.324c0-13.832-11.211-24.897-24.898-24.897c-13.831,0-24.896,11.21-24.896,24.897
		c0,6.695,2.621,12.811,6.988,17.324C17.495,71.165,19.97,76.407,20.99,82.229z"/>
	<path fill="#FFFFFF" d="M23.483,80.219c-1.222-5.594-3.714-10.75-7.42-15.348l-0.081-0.1l-0.089-0.092
		c-3.992-4.127-6.191-9.579-6.191-15.354c0-12.165,9.896-22.063,22.061-22.063c12.166,0,22.064,9.897,22.064,22.063
		c0,5.773-2.199,11.227-6.192,15.354l-0.088,0.091l-0.08,0.099c-3.074,3.804-5.292,7.921-6.609,12.263L23.483,80.219z"/>
</g>
<g>
	<polygon fill="#3694B9" points="42.538,86.307 42.538,82.375 20.99,86.159 20.99,90.239 	"/>
</g>
<g>
	<path fill="#3694B9" d="M42.538,92.858v-4.076L20.99,92.569v1.6c0,0.875,0.292,1.602,0.728,2.328L42.538,92.858z"/>
</g>
<g>
	<path fill="#3694B9" d="M23.611,98.684c2.038,1.453,4.804,2.328,8.152,2.328c5.388,0,9.758-2.473,10.629-5.678L23.611,98.684z"/>
</g>
<rect x="58.893" y="63.016" fill="#4D7AB7" width="69.627" height="2.078"/>
<rect x="66.775" y="106.128" fill="#4D7AB7" width="61.745" height="2.078"/>
<rect x="44.622" y="97.135" transform="matrix(0.7181 0.6959 -0.6959 0.7181 84.6573 -12.6674)" fill="#4D7AB7" width="26.688" height="2.079"/>
<rect x="86.415" y="25.83" fill="#05B5E4" width="42.105" height="10.032"/>
<rect x="86.415" y="112.949" fill="#05B5E4" width="42.105" height="10.032"/>
<rect x="86.415" y="72.343" fill="#05B5E4" width="42.105" height="10.032"/>
</svg>
