<?xml version="1.0" encoding="utf-8"?>
<!-- Generator: Adobe Illustrator 15.1.0, SVG Export Plug-In . SVG Version: 6.00 Build 0)  -->
<!DOCTYPE svg PUBLIC "-//W3C//DTD SVG 1.1//EN" "http://www.w3.org/Graphics/SVG/1.1/DTD/svg11.dtd">
<svg version="1.1" id="Layer_1" xmlns="http://www.w3.org/2000/svg" xmlns:xlink="http://www.w3.org/1999/xlink" x="0px" y="0px"
	 width="141.732px" height="141.732px" viewBox="0 0 141.732 141.732" enable-background="new 0 0 141.732 141.732"
	 xml:space="preserve">
<path fill="#454443" d="M122.625,136.781c0,0.801-0.6,1.5-1.398,1.5h-100.8c-0.8,0-1.4-0.699-1.4-1.5V5.48c0-0.8,0.6-1.5,1.4-1.5
	h100.8c0.799,0,1.398,0.7,1.398,1.5V136.781z"/>
<g>
	<rect x="28.227" y="13.281" fill="#F3F3F3" width="83" height="112.301"/>
</g>
<g>
	<g>
		<rect x="73.027" y="34.98" fill="#F6AD41" width="34.3" height="1.2"/>
		<rect x="73.027" y="39.681" fill="#F6AD41" width="34.3" height="1.2"/>
		<rect x="73.027" y="44.281" fill="#F6AD41" width="34.3" height="1.2"/>
		<rect x="73.027" y="48.98" fill="#F6AD41" width="34.3" height="1.2"/>
		<rect x="73.027" y="53.581" fill="#F6AD41" width="34.3" height="1.2"/>
	</g>
	<g>
		<rect x="73.027" y="59.681" fill="#F6AD41" width="34.3" height="1.2"/>
		<rect x="73.027" y="64.281" fill="#F6AD41" width="34.3" height="1.199"/>
		<rect x="73.027" y="68.98" fill="#F6AD41" width="34.3" height="1.201"/>
		<rect x="73.027" y="73.582" fill="#F6AD41" width="34.3" height="1.199"/>
	</g>
</g>
<rect x="33.927" y="25.181" fill="#ACC2C2" width="34.3" height="49.401"/>
<g>
	<g>
		<g>
			<path fill="#F6AD41" d="M107.625,118.48H33.427c-0.2,0-0.3-0.199-0.3-0.299v-38.1h0.6v37.799h73.899V118.48z"/>
			<path fill="#F6AD41" d="M107.926,118.781h-74.5c-0.3,0-0.6-0.301-0.6-0.6v-38.4h1.2v37.801h73.899V118.781z M33.327,80.38v37.801
				v0.1h73.9v-0.1h-73.8L33.327,80.38L33.327,80.38z"/>
		</g>
	</g>
	<g>
		<line fill="none" x1="33.427" y1="85.281" x2="107.625" y2="85.281"/>
		<rect x="33.427" y="84.681" fill="#F6AD41" width="74.199" height="1.199"/>
	</g>
	<g>
		<line fill="none" x1="33.427" y1="93.781" x2="107.625" y2="93.781"/>
		<rect x="33.427" y="93.181" fill="#F6AD41" width="74.199" height="1.199"/>
	</g>
	<g>
		<line fill="none" x1="33.427" y1="102.281" x2="107.625" y2="102.281"/>
		<rect x="33.427" y="101.681" fill="#F6AD41" width="74.199" height="1.199"/>
	</g>
	<g>
		<line fill="none" x1="33.427" y1="110.781" x2="107.625" y2="110.781"/>
		<rect x="33.427" y="110.181" fill="#F6AD41" width="74.199" height="1.199"/>
	</g>
</g>
<g>
	<path fill="#3694B9" d="M44.788,60.458v0.737l12.426-2.208c0.654-2.699,1.961-5.151,3.679-7.276
		c2.453-2.535,3.925-5.968,3.925-9.728c0-7.767-6.295-13.979-13.98-13.979c-7.767,0-13.979,6.294-13.979,13.979
		c0,3.76,1.472,7.193,3.924,9.728C42.825,54.247,44.215,57.19,44.788,60.458z"/>
</g>
<g>
	<polygon fill="#676767" points="56.887,62.749 56.887,60.541 44.788,62.666 44.788,64.957 	"/>
</g>
<g>
	<path fill="#676767" d="M56.887,66.427v-2.289l-12.099,2.126v0.898c0,0.49,0.164,0.898,0.409,1.307L56.887,66.427z"/>
</g>
<g>
	<path fill="#676767" d="M46.259,69.699c1.145,0.815,2.698,1.308,4.578,1.308c3.024,0,5.478-1.391,5.967-3.188L46.259,69.699z"/>
</g>
</svg>
