<?xml version="1.0" encoding="utf-8"?>
<!-- Generator: Adobe Illustrator 15.1.0, SVG Export Plug-In . SVG Version: 6.00 Build 0)  -->
<!DOCTYPE svg PUBLIC "-//W3C//DTD SVG 1.1//EN" "http://www.w3.org/Graphics/SVG/1.1/DTD/svg11.dtd">
<svg version="1.1" id="Layer_1" xmlns="http://www.w3.org/2000/svg" xmlns:xlink="http://www.w3.org/1999/xlink" x="0px" y="0px"
	 width="141.732px" height="141.732px" viewBox="0 0 141.732 141.732" enable-background="new 0 0 141.732 141.732"
	 xml:space="preserve">
<g>
	<path fill="#454443" d="M89.142,135.931h30.192c3.547,0,6.398-3.061,6.398-6.887V70.678c0-3.826-2.852-6.888-6.398-6.888H89.142
		c-3.548,0-6.4,3.062-6.4,6.888v58.296C82.672,132.8,85.594,135.931,89.142,135.931z"/>
	<path fill="#CCCBCB" d="M104.446,133.566c-1.738,0-3.131-1.392-3.131-3.13c0-1.739,1.393-3.131,3.131-3.131
		c1.74,0,3.131,1.392,3.131,3.131C107.577,132.174,106.186,133.566,104.446,133.566z"/>
	<rect x="86.29" y="68.312" fill="#F3F3F3" width="35.826" height="56.001"/>
</g>
<g>
	<path fill="#4D7AB7" d="M107.368,93.426v3.061c3.688,1.322,6.4,4.869,6.4,9.044c0,5.287-4.313,9.601-9.6,9.601
		s-9.601-4.313-9.601-9.601c0-4.175,2.644-7.722,6.399-9.044v-3.061c-5.355,1.392-9.32,6.261-9.32,12.035
		c0,6.887,5.564,12.452,12.451,12.452s12.453-5.565,12.453-12.452C116.69,99.756,112.725,94.887,107.368,93.426z"/>
	<rect x="102.567" y="91.061" fill="#4D7AB7" width="3.34" height="13.009"/>
</g>
<path fill="#F6AD41" d="M116.481,78.539c-1.738,0-3.131-1.391-3.131-3.13s1.393-3.131,3.131-3.131s3.131,1.392,3.131,3.131
	C119.542,77.148,118.151,78.539,116.481,78.539z"/>
<path fill="#4D7AB7" d="M107.297,78.539c-1.738,0-3.129-1.391-3.129-3.13s1.391-3.131,3.129-3.131c1.74,0,3.131,1.392,3.131,3.131
	S109.038,78.539,107.297,78.539z"/>
<path fill="#4D7AB7" d="M98.186,78.539c-1.74,0-3.131-1.391-3.131-3.13s1.391-3.131,3.131-3.131c1.738,0,3.129,1.392,3.129,3.131
	S99.924,78.539,98.186,78.539z"/>
<path fill="#3694B9" d="M71.424,55.729c0-13.801-11.211-24.84-24.898-24.84c-13.831,0-24.896,11.185-24.896,24.84"/>
<g>
	<polygon fill="#676767" points="56.72,90.833 56.72,86.901 35.172,90.685 35.172,94.765 	"/>
</g>
<g>
	<path fill="#676767" d="M56.72,97.383v-4.076l-21.548,3.787v1.6c0,0.875,0.292,1.603,0.728,2.329L56.72,97.383z"/>
</g>
<g>
	<path fill="#676767" d="M37.793,103.209c2.038,1.454,4.804,2.329,8.152,2.329c5.388,0,9.758-2.474,10.629-5.678L37.793,103.209z"/>
</g>
<g>
	<g>
		<g>
			<g>
				<g>
					<path fill="#454443" d="M67.591,10.301l0.399-4.5c7.601,0.899,14.7,4.399,20.1,9.8s8.9,12.5,9.801,20.1l-4.5,0.4
						c-0.9-6.5-3.801-12.6-8.5-17.3C80.29,14.101,74.19,11.201,67.591,10.301z"/>
				</g>
			</g>
		</g>
	</g>
	<g>
		<g>
			<g>
				<g>
					<path fill="#454443" d="M66.79,20.501l0.4-4.6c5.2,0.699,10,3.1,13.701,6.799c3.699,3.701,6.1,8.5,6.898,13.701l-4.6,0.399
						c-0.6-4.101-2.6-7.899-5.5-10.899C74.79,23.101,70.891,21.101,66.79,20.501z"/>
				</g>
			</g>
		</g>
	</g>
	<g>
		<g>
			<g>
				<g>
					<path fill="#454443" d="M66.091,30.402l0.399-4.601c2.9,0.5,5.5,1.899,7.601,4c2.1,2.101,3.5,4.7,4,7.5l-4.601,0.399
						c-0.399-1.799-1.3-3.399-2.6-4.699C69.49,31.701,67.79,30.801,66.091,30.402z"/>
				</g>
			</g>
		</g>
	</g>
</g>
<polygon fill="#676767" points="56.72,84.149 35.172,87.749 35.172,84.149 "/>
<polygon fill="#676767" points="21.63,55.729 35.172,81.952 56.574,81.952 71.424,55.729 "/>
</svg>
